# xmcd CD database file
#
# Track frame offsets:
#	150
#	11034
#	24325
#	37153
#	59458
#
# Disc length: 915 seconds
#
# Revision: 0
# Processed by: cddbd v1.5.1PL0 Copyright (c) Steve Scherf et al.
# Submitted via: CDex 1.51
#
DISCID=3b039105
DTITLE=Manos Takas - The Jazz Session 
DYEAR=2005
DGENRE=Jazz
TTITLE0=40z - 40z
TTITLE1=Manos Takas - Distorted Drive
TTITLE2=Manos Takas - Just walkin
TTITLE3=Manos Takas - My blue sax
TTITLE4=Manos Takas - Beathoven
EXTD=YEAR: 2005
EXTT0=
EXTT1=
EXTT2=
EXTT3=
EXTT4=
PLAYORDER=
